<svg width="40" height="40" viewBox="0 0 40 40" fill="none" xmlns="http://www.w3.org/2000/svg">
<rect width="40" height="40" rx="8" fill="#F9F9F9"/>
<g clip-path="url(#clip0_133_1514)">
<path fill-rule="evenodd" clip-rule="evenodd" d="M25.3334 12.1429V12.38C26.8729 12.5041 28.4062 12.6825 29.9295 12.9148C30.0445 12.9324 30.1545 12.9697 30.2531 13.0247C30.3518 13.0798 30.4372 13.1514 30.5044 13.2355C30.5716 13.3196 30.6194 13.4145 30.6451 13.5149C30.6707 13.6152 30.6736 13.7191 30.6537 13.8204C30.6337 13.9218 30.5914 14.0187 30.5289 14.1057C30.4665 14.1926 30.3853 14.2679 30.2899 14.3271C30.1944 14.3864 30.0867 14.4285 29.9728 14.4511C29.8589 14.4736 29.7411 14.4762 29.6261 14.4587L29.3784 14.4221L28.1873 28.0744C28.1186 28.8615 27.7154 29.5968 27.0581 30.1333C26.4009 30.6697 25.5382 30.9677 24.6424 30.9678H15.3589C14.4631 30.9677 13.6003 30.6697 12.9431 30.1333C12.2859 29.5968 11.8826 28.8615 11.814 28.0744L10.6217 14.4221L10.374 14.4587C10.259 14.4762 10.1411 14.4736 10.0273 14.4511C9.91337 14.4285 9.80564 14.3864 9.71022 14.3271C9.51752 14.2074 9.38665 14.0252 9.34642 13.8204C9.30618 13.6157 9.35987 13.4053 9.49568 13.2355C9.63148 13.0656 9.83828 12.9503 10.0706 12.9148C11.5938 12.6822 13.1271 12.5038 14.6667 12.38V12.1429C14.6667 10.5092 16.1043 9.11371 18.0042 9.06044C19.3348 9.0229 20.6665 9.0229 21.9971 9.06044C23.8969 9.11371 25.3334 10.5092 25.3334 12.1429ZM18.0611 10.6262C19.3538 10.5898 20.6475 10.5898 21.9402 10.6262C22.8326 10.6513 23.5556 11.3135 23.5556 12.1429V12.2609C21.1874 12.1342 18.8127 12.1342 16.4445 12.2609V12.1429C16.4445 11.3135 17.1663 10.6513 18.0611 10.6262ZM17.6403 16.8361C17.6358 16.7332 17.6084 16.6321 17.5595 16.5386C17.5107 16.445 17.4414 16.3609 17.3557 16.291C17.27 16.221 17.1694 16.1667 17.0599 16.131C16.9503 16.0953 16.8338 16.079 16.7171 16.0829C16.6004 16.0869 16.4857 16.1111 16.3795 16.1542C16.2734 16.1972 16.178 16.2583 16.0986 16.3338C16.0193 16.4094 15.9576 16.498 15.9171 16.5945C15.8766 16.6911 15.858 16.7938 15.8626 16.8966L16.2738 26.2976C16.2829 26.5052 16.3853 26.7012 16.5583 26.8423C16.644 26.9122 16.7444 26.9665 16.8539 27.0022C16.9634 27.0379 17.0798 27.0542 17.1965 27.0502C17.3131 27.0462 17.4278 27.022 17.5338 26.979C17.6399 26.936 17.7352 26.875 17.8145 26.7995C17.8938 26.724 17.9555 26.6354 17.9959 26.5389C18.0364 26.4424 18.0549 26.3398 18.0504 26.237L17.6403 16.8361ZM24.1352 16.8966C24.1438 16.7918 24.1285 16.6865 24.09 16.5869C24.0516 16.4874 23.9908 16.3958 23.9112 16.3174C23.8317 16.239 23.7351 16.1755 23.6272 16.1308C23.5193 16.086 23.4022 16.0608 23.283 16.0568C23.1638 16.0527 23.0449 16.0698 22.9334 16.1071C22.8218 16.1444 22.72 16.2011 22.6338 16.2738C22.5477 16.3465 22.479 16.4338 22.4319 16.5304C22.3848 16.627 22.3603 16.7309 22.3597 16.8361L21.9485 26.237C21.9394 26.4448 22.0243 26.6472 22.1845 26.7998C22.3448 26.9524 22.5673 27.0427 22.803 27.0507C23.0388 27.0587 23.2685 26.9839 23.4416 26.8427C23.6148 26.7014 23.7171 26.5054 23.7263 26.2976L24.1352 16.8966Z" fill="#1F2041"/>
</g>
<defs>
<clipPath id="clip0_133_1514">
<rect width="32" height="30.9677" fill="white" transform="translate(4 9.03229)"/>
</clipPath>
</defs>
</svg>
